<?xml version="1.0" encoding="UTF-8" standalone="no"?>
<svg width="26px" height="22px" viewBox="0 0 26 22" version="1.1" xmlns="http://www.w3.org/2000/svg" xmlns:xlink="http://www.w3.org/1999/xlink" xmlns:sketch="http://www.bohemiancoding.com/sketch/ns">
    <!-- Generator: Sketch 3.2.2 (9983) - http://www.bohemiancoding.com/sketch -->
    <title>Slice 1</title>
    <desc>Created with Sketch.</desc>
    <defs></defs>
    <g id="Page-1" stroke="none" stroke-width="1" fill="none" fill-rule="evenodd" sketch:type="MSPage">
        <path d="M11.4242327,1.14839275 C12.2942987,-0.25927024 13.707028,-0.25591558 14.5750205,1.14839275 L25.3601099,18.59738 C26.5216388,20.4765951 25.6755462,22 23.4714068,22 L2.5278464,22 C0.32321557,22 -0.52613683,20.4826642 0.63914331,18.59738 L11.4242327,1.14839275 L11.4242327,1.14839275 Z M12.353181,1.5229211 C12.7005152,0.96165163 13.2647678,0.9634187 13.6110318,1.52292108 L24.6162937,19.3055078 C25.1954663,20.2413498 24.7622271,20.9999996 23.6746349,20.9999996 L2.29039231,21 C1.19115596,21 0.76644971,20.2463265 1.34866262,19.3055082 L12.353181,1.5229211 L12.353181,1.5229211 Z M13,7 C12.4477153,7 12,7.4530363 12,7.9970301 L12,14.0029699 C12,14.5536144 12.4438648,15 13,15 C13.5522847,15 14,14.5469637 14,14.0029699 L14,7.9970301 C14,7.4463856 13.5561352,7 13,7 L13,7 L13,7 Z M13,19 C13.5522848,19 14,18.5522848 14,18 C14,17.4477152 13.5522848,17 13,17 C12.4477152,17 12,17.4477152 12,18 C12,18.5522848 12.4477152,19 13,19 L13,19 L13,19 Z" id="warning" fill="#B49C00" sketch:type="MSShapeGroup"></path>
    </g>
</svg>