<?xml version="1.0" encoding="utf-8"?>
<!-- Generator: Adobe Illustrator 16.2.1, SVG Export Plug-In . SVG Version: 6.00 Build 0)  -->
<!DOCTYPE svg PUBLIC "-//W3C//DTD SVG 1.1//EN" "http://www.w3.org/Graphics/SVG/1.1/DTD/svg11.dtd">
<svg version="1.1" id="Layer_1" xmlns="http://www.w3.org/2000/svg" xmlns:xlink="http://www.w3.org/1999/xlink" x="0px" y="0px" viewBox="0 0 413.624 413.196" enable-background="new 0 0 413.624 413.196"
	 xml:space="preserve">
<g>
	<g>
		<path fill="#2fd9fd" d="M148.436,194.261c6.656,0,10.484-1.947,12.725-4.124v3.474h9.826v-26.678h-21.465v9.33h9.758v5.274
			c-1.735,1.519-4.771,2.747-8.893,2.747c-8.957,0-13.808-6.726-13.808-14.965c0-8.817,5.062-15.255,13.229-15.255
			c5.352,0,8.974,2.75,10.123,7.521h9.613V144.45h-8.527v4.127c-1.887-2.895-5.857-4.704-12.073-4.704
			c-13.806,0-25.808,10.337-25.808,25.446C123.137,184.575,134.993,194.261,148.436,194.261z"/>
		<polygon fill="#2fd9fd" points="275.374,261.365 279.344,261.365 273.923,281.027 263.588,252.54 258.095,252.54 247.76,280.808 242.34,261.365
			246.096,261.365 246.096,252.54 226.222,252.54 226.222,261.365 229.692,261.365 241.107,301.701 251.01,301.701 260.553,275.822
			270.026,301.701 279.929,301.701 291.273,261.365 294.889,261.365 294.889,252.54 275.374,252.54 		"/>
		<path fill="#2fd9fd" d="M413.624,24.335c0-6.417-2.553-12.506-7.188-17.146c-4.479-4.479-10.366-7.029-16.571-7.181
			c-2.352-0.06-4.642,0.229-6.819,0.842c-3.621,1.019-6.922,2.938-9.636,5.651l-1.687,1.69l-47.096,47.094l-35.936-35.935
			l-19.354,19.353l35.935,35.933l-32.66,32.661c-22.531-4.899-44.248-13.229-64.278-24.812l-2.368-1.368l-2.367,1.368
			c-19.617,11.347-40.857,19.577-62.897,24.514l-32.356-32.357l35.932-35.936l-19.351-19.354L88.991,55.289L40.209,6.505
			C36.022,2.31,30.381,0,24.333,0C17.915,0,11.826,2.554,7.189,7.189c-4.478,4.479-7.03,10.363-7.182,16.569
			c-0.059,2.353,0.23,4.644,0.842,6.816C1.871,34.2,3.789,37.501,6.5,40.214l1.69,1.689l47.095,47.093L19.35,124.935l19.352,19.353
			l35.934-35.936l12.234,12.234v120.516c0,15.272,2.861,30.048,8.226,43.718l-58.21,58.209l-29.689,63.4l63.398-29.691l0.434-0.434
			l1.807-1.809l49.053-49.052c5.96,5.913,12.562,11.288,19.822,15.945l64.256,39.272l62.506-38.161l1.049-0.646l0.013-0.024
			c7.88-4.979,14.997-10.792,21.356-17.23l52.139,52.138l63.402,29.691l-29.693-63.396l-0.437-0.438l-1.808-1.808l-57.207-57.207
			c5.061-13.325,7.787-27.659,7.787-42.479V122.253l13.91-13.908l35.936,35.935l19.354-19.355l-35.938-35.933l48.783-48.777
			C411.316,36.021,413.624,30.384,413.624,24.335z M132.458,108.68c-2.631,0.488-5.271,0.925-7.924,1.317L98.76,84.227l4.622-4.622
			L132.458,108.68z M115.745,111.132c-2.82,0.305-5.646,0.566-8.482,0.765L89.176,93.81l4.625-4.624L115.745,111.132z
			 M80.438,56.658l3.591,3.593l-7.183,7.186L80.438,56.658z M74.894,51.111l-9.142,27.418l-5.508,5.508l-1.588-1.589l11.89-35.686
			L74.894,51.111z M11.46,35.252C8.49,32.283,6.913,28.263,7.019,23.93c0.108-4.397,1.931-8.581,5.128-11.779
			c3.315-3.312,7.639-5.135,12.187-5.135c1.562,0,3.088,0.221,4.533,0.651c2.405,0.714,4.593,2.005,6.384,3.797l3.488,3.49
			L14.951,38.74L11.46,35.252z M23.452,47.242l-3.543-3.54l7.08-7.078L23.452,47.242z M28.996,52.787l9.081-27.25l5.622-5.624
			l1.527,1.53L33.332,57.125L28.996,52.787z M38.876,62.669l11.897-35.682l4.348,4.351l-11.896,35.68L38.876,62.669z M53.112,76.901
			l-4.344-4.341l11.896-35.678L65,41.219L53.112,76.901z M38.702,134.365l-9.433-9.431l95.656-95.662l9.433,9.435L38.702,134.365z
			 M91.6,112.455h-2.939l-9.066-9.065l4.622-4.618L97.8,112.354C95.734,112.411,93.67,112.455,91.6,112.455z M98.073,291.762
			c0.974,2.076,2.02,4.114,3.107,6.126l-47.147,47.149v-4.608l-4.625-0.001L98.073,291.762z M58.981,350.008l45.854-45.853
			c1.176,1.887,2.424,3.729,3.705,5.551L63.616,354.63v-4.622H58.981z M66.184,371.059l-31.706,14.849l-6.763-6.76l14.852-31.706
			h4.451v9.58h9.583v9.583h9.583V371.059z M102.399,335.014L73.2,364.21v-4.618h-4.624l44.228-44.23
			c1.363,1.704,2.787,3.366,4.248,4.998L102.399,335.014z M169.653,295.362c0,4.175-3.389,7.564-7.568,7.564h-23.207
			c-4.182,0-7.571-3.39-7.571-7.564v-25.896c0-1.066,0.872-1.938,1.937-1.938h1.248c1.067,0,1.938,0.871,1.938,1.938v13.678
			c0,0.88,0.715,1.592,1.592,1.592c0.882,0,1.594-0.712,1.594-1.592V247.66c0-1.063,0.87-1.933,1.936-1.933h1.25
			c1.064,0,1.935,0.869,1.935,1.933v23.17c0,0.878,0.713,1.592,1.593,1.592c0.881,0,1.596-0.714,1.596-1.592v-26.488
			c0-1.062,0.867-1.933,1.935-1.933h1.251c1.061,0,1.932,0.87,1.932,1.933v26.488c0,0.878,0.716,1.592,1.596,1.592
			c0.876,0,1.589-0.714,1.589-1.592v-23.17c0-1.063,0.872-1.933,1.937-1.933h1.252c1.063,0,1.936,0.869,1.936,1.933v23.17
			c0,0.878,0.713,1.592,1.592,1.592c0.88,0,1.59-0.714,1.59-1.592v-15.743c0-1.062,0.871-1.933,1.938-1.933h1.246
			c1.07,0,1.939,0.87,1.939,1.933V295.362z M200.716,219.249H96.333v-97.377c36.485-0.737,72.3-10.022,104.383-26.996V219.249z
			 M369.922,19.912l7.079,7.078l-10.62-3.538L369.922,19.912z M310.231,79.597l4.621,4.621l-25.995,25.996
			c-2.661-0.376-5.319-0.807-7.964-1.276L310.231,79.597z M319.814,89.177l4.624,4.626l-18.201,18.203
			c-2.856-0.181-5.707-0.413-8.547-0.703L319.814,89.177z M254.653,148.724c3.652,0,6.954,1.479,9.341,3.878
			c2.39-2.398,5.692-3.878,9.345-3.878c7.289,0,13.193,5.909,13.193,13.195c0,3.002-1.014,5.762-2.703,7.979l-19.835,21.924
			l-19.833-21.924c-1.69-2.218-2.703-4.978-2.703-7.979C241.458,154.633,247.368,148.724,254.653,148.724z M263.528,334.424
			l-52.312,31.943v-136.62H315.61v11.354C315.61,279.381,296.141,314.268,263.528,334.424z M307.721,303.103l46.91,46.905h-4.624
			v4.633l-45.937-45.937C305.338,306.868,306.56,305.003,307.721,303.103z M340.426,359.592v4.626l-44.756-44.756
			c1.447-1.645,2.844-3.326,4.191-5.046l45.174,45.176H340.426z M366.606,347.441h4.45l14.849,31.703l-6.756,6.763l-31.709-14.849
			l0.001-4.45h9.581v-9.584h9.584V347.441z M335.01,311.225l29.201,29.2h-4.621v4.622l-48.273-48.27
			c1.076-2.036,2.097-4.098,3.053-6.193L335.01,311.225z M324.948,112.455h-4.616c-1.521,0-3.035-0.042-4.553-0.074l13.618-13.619
			l4.623,4.622L324.948,112.455z M384.352,124.924l-9.434,9.435l-95.66-95.654l9.434-9.432L384.352,124.924z M346.189,76.847
			l10.78,3.594l-3.595,3.593L346.189,76.847z M362.512,74.895l-27.417-9.141l-5.509-5.506l1.59-1.592l35.684,11.892L362.512,74.895z
			 M372.405,65.002l-35.681-11.889l4.339-4.342l35.678,11.896L372.405,65.002z M382.288,55.124l-35.68-11.899l4.346-4.345
			l35.684,11.893L382.288,55.124z M392.182,45.229L356.5,33.336l4.336-4.339l27.251,9.08l5.622,5.625L392.182,45.229z
			 M405.958,28.866c-0.715,2.407-2.005,4.595-3.798,6.386l-3.491,3.485l-23.784-23.786l3.488-3.487
			c2.969-2.972,6.986-4.549,11.322-4.444c4.395,0.109,8.581,1.931,11.777,5.131c3.312,3.312,5.136,7.64,5.136,12.185
			C406.609,25.899,406.387,27.424,405.958,28.866z"/>
	</g>
	<g>
		<g>
			<g>
				<path fill="#2fd9fd" d="M-3.208,494.675V451.59l7.806-7.722h21.964l7.469,7.464v10.173H22.24v-5.93l-2.383-2.377H11.38l-2.791,2.797v34.609
					l2.791,2.797h8.477l2.462-2.541v-10.778H14.1v-9.407h20.018v24.084l-7.636,7.634H4.598L-3.208,494.675z"/>
				<path fill="#2fd9fd" d="M68.663,493.062l2.803-2.796v-34.271l-2.803-2.797h-8.315l-2.807,2.797v34.271l2.807,2.796H68.663z M45.76,494.675
					V451.59l7.801-7.722h21.963l7.725,7.722v43.085l-7.725,7.718H53.561L45.76,494.675z"/>
				<path fill="#2fd9fd" d="M118.305,493.062l2.807-2.796v-34.271l-2.807-2.797h-8.303l-2.805,2.797v34.271l2.805,2.796H118.305z M95.403,494.675
					V451.59l7.809-7.722h21.962l7.731,7.722v43.085l-7.731,7.718h-21.962L95.403,494.675z"/>
				<path fill="#2fd9fd" d="M170.921,493.147l2.804-2.797v-34.441l-2.804-2.796h-10.085v40.034H170.921z M144.452,493.912h4.584v-41.561h-4.584
					v-8.483h33.26l7.805,7.722v43.085l-7.805,7.718h-33.26V493.912z"/>
				<path fill="#2fd9fd" d="M198.266,452.352h-3.316v-8.483h18.926v8.483h-4.918l4.309,38.509l7.045-46.992h14.422l6.962,46.992l4.24-38.509h-4.751
					v-8.483h17.469v8.483h-3.312l-7.125,50.041h-14.326l-6.881-47.413l-6.782,47.413h-14.929L198.266,452.352z"/>
				<path fill="#2fd9fd" d="M291.004,493.062l2.809-2.796v-34.271l-2.809-2.797h-8.312l-2.791,2.797v34.271l2.791,2.796H291.004z M268.106,494.675
					V451.59l7.803-7.722h21.973l7.705,7.722v43.085l-7.705,7.718h-21.973L268.106,494.675z"/>
				<path fill="#2fd9fd" d="M341.75,469.486l2.887-2.889v-11.618l-2.623-2.628h-10.18v17.135H341.75z M315.471,493.912h4.571v-41.561h-4.571v-8.483
					h33.494l7.457,7.464v16.543l-5.413,5.513l5.413,5.429v14.839l0.262,0.257h2.889v8.48h-10.26l-4.676-4.66v-16.715l-2.971-2.966
					h-9.832v15.86h4.406v8.48h-20.77V493.912z"/>
				<path fill="#2fd9fd" d="M393.276,493.997h4.064l-5.254-17.816l-6.797,10.943v6.873h3.647v8.396h-20.013v-8.396h4.58v-41.734h-4.58v-8.395
					h20.013v8.395h-3.647V473.3l11.204-21.037h-3.647v-8.395h19.93v8.395h-4.497l-8.317,14.251l9.334,27.483h4.328v8.396h-20.348
					V493.997z"/>
			</g>
		</g>
	</g>
</g>
</svg>
