<?xml version="1.0" encoding="utf-8"?>
<!-- Generator: Adobe Illustrator 16.2.1, SVG Export Plug-In . SVG Version: 6.00 Build 0)  -->
<!DOCTYPE svg PUBLIC "-//W3C//DTD SVG 1.1//EN" "http://www.w3.org/Graphics/SVG/1.1/DTD/svg11.dtd">
<svg version="1.1" id="Layer_1" xmlns="http://www.w3.org/2000/svg" xmlns:xlink="http://www.w3.org/1999/xlink" x="0px" y="0px" viewBox="0 0 501.818 501.818" enable-background="new 0 0 501.818 501.818"
	 xml:space="preserve">
<g>
	<path fill="#FFE435" d="M236.493,84.184c-0.219,1.021-0.333,2.08-0.333,3.164v8.245v38.913h-34.791v18.871h34.791v38.125h-22.896
		v-9.686h13.916v-18.854h-46.688v18.854h13.918v9.686h-49.744l-15.369,15.367v41.367l15.363,15.362h45.232v-18.853h-37.423
		l-4.318-4.318v-25.754l4.319-4.318h41.939v87.634h-41.942l-4.316-4.316V274.46h-18.854v27.021l15.361,15.362h49.752v9.686h-13.918
		v18.854h46.688V326.53h-13.916v-9.686h22.896v25.367v0.434l16.385,45.248l16.385-45.248v-0.434v-25.367h22.895v9.686H277.91v18.854
		h46.687V326.53h-13.919v-9.686h49.756l15.361-15.362v-41.373l-15.363-15.362h-45.232v18.853h37.423l4.319,4.318v25.754
		l-4.318,4.318h-41.945v-87.634h41.944l4.319,4.318v19.211h18.854V206.86l-15.359-15.357h-49.758v-9.686h13.919v-18.854H277.91
		v18.854h13.914v9.686h-22.895v-38.125h34.791v-18.871h-34.791V95.593v-8.245c0-8.669-7.35-15.722-16.385-15.722
		C244.638,71.626,238.023,77.026,236.493,84.184z M241.096,95.593h6.495l-6.495,3.247V95.593z M241.096,104.361l17.536-8.768h5.36
		v1.372l-22.896,11.447V104.361z M241.096,113.933l22.896-11.448v4.053l-22.896,11.447V113.933z M241.096,123.505l22.896-11.448
		v4.055l-22.896,11.447V123.505z M241.096,133.079l22.896-11.447v4.053l-17.646,8.822h-5.251V133.079z M263.993,131.204v3.303
		h-6.604L263.993,131.204z M254.716,191.502h-4.342v-38.125h4.342V191.502z M245.437,191.502h-4.341v-38.125h4.341V191.502z
		 M185.429,176.879v-8.979h36.813v8.979h-13.917v14.623h-8.98v-14.623H185.429z M222.243,331.465v8.98h-36.813v-8.98h13.916v-14.621
		h8.98v14.621H222.243z M241.096,316.844h4.341v18.301l-2.168-2.168l-2.173,2.172V316.844z M250.375,316.844h4.342v18.303
		l-2.172-2.17l-2.17,2.172V316.844z M255.746,364.553h-6.402l-8.154-22.516l0.148-0.148l0.781-0.781l1.148-1.148l1.639,1.639
		l3,3.002l2.706-2.707l-0.005-0.004l1.931-1.93l1.147,1.148h0.008l3.49,3.492l2.707-2.707l-0.004-0.004l1.93-1.93l1.152,1.148h0.003
		l0.929,0.928L255.746,364.553z M263.993,335.145l-2.169-2.168l-2.171,2.17v-18.303h4.34V335.145z M319.66,331.465v8.98h-36.813
		v-8.98h13.915v-14.621h8.979v14.621H319.66z M354.667,302.927l7.211-7.211v-29.844l-7.212-7.209h-34.531v-8.979h38.251
		l12.471,12.47v37.283l-12.469,12.47H146.702l-12.468-12.47v-20.039h8.98v16.318l7.207,7.211H354.667z M291.824,297.99h-22.895
		v-34.391h22.895V297.99z M263.993,297.99h-4.34v-34.391h4.34V297.99z M254.716,297.99h-4.342v-34.391h4.342V297.99z
		 M245.437,297.99h-4.341v-34.391h4.341V297.99z M236.16,297.99h-22.896v-34.391h22.896V297.99z M305.741,297.99h-8.979v-39.326
		h-88.436v39.326h-8.98v-87.634h8.98v39.328h88.436v-39.328h8.979V297.99z M291.824,210.356v34.391h-22.895v-34.391H291.824z
		 M263.993,244.747h-4.34v-34.391h4.34V244.747z M254.716,244.747h-4.342v-34.391h4.342V244.747z M245.437,244.747h-4.341v-34.391
		h4.341V244.747z M236.16,244.747h-22.896v-34.391h22.896V244.747z M370.857,208.905v20.043h-8.979v-16.318l-7.212-7.211H150.423
		l-7.209,7.211v29.844l7.21,7.211h34.531v8.979h-38.251l-12.471-12.47v-37.279l12.477-12.475h211.68L370.857,208.905z
		 M282.846,176.879v-8.979h36.813v8.979h-13.919v14.623h-8.979v-14.623H282.846z M259.653,191.502v-38.125h4.34v38.125H259.653z
		 M298.784,139.443v8.997h-92.479v-8.997H298.784z M252.544,76.563c6.312,0,11.448,4.839,11.448,10.785v3.309h-22.896v-3.309
		C241.096,81.402,246.232,76.563,252.544,76.563z"/>
	<polygon fill="#FFE435" points="72.777,251.424 69.91,251.424 69.91,248.956 72.777,248.956 72.777,246.831 69.91,246.831
		69.91,244.428 72.535,244.428 72.535,246.053 75.005,246.053 75.005,242.063 65.902,242.063 65.902,244.17 66.765,244.17
		66.765,251.702 65.902,251.702 65.902,253.809 75.248,253.809 75.248,249.715 72.777,249.715 	"/>
	<path fill="#FFE435" d="M83.906,246.709l-1.555-0.518c-0.57-0.191-0.898-0.502-0.898-0.969c0-0.482,0.449-0.914,1.191-0.914
		c0.777,0,1.572,0.361,1.866,1.398h2.073v-3.645h-2.039v0.795c-0.275-0.484-0.967-0.934-2.245-0.934
		c-1.899,0-3.817,1.191-3.817,3.506c0,1.953,1.209,2.973,2.919,3.541l1.382,0.467c0.777,0.26,1.244,0.57,1.244,1.158
		c0,0.604-0.622,1.035-1.486,1.035c-1.035,0-1.865-0.518-2.176-1.709h-2.107v3.887h2.038v-0.934
		c0.466,0.709,1.571,1.105,2.729,1.105c2.678,0,4.024-1.555,4.024-3.713C87.049,248.61,86.255,247.487,83.906,246.709z"/>
	<polygon fill="#FFE435" points="89.283,246.157 91.58,246.157 91.58,244.516 92.737,244.516 92.737,251.702 91.873,251.702
		91.873,253.809 96.744,253.809 96.744,251.702 95.88,251.702 95.88,244.516 97.038,244.516 97.038,246.157 99.335,246.157
		99.335,242.063 89.283,242.063 	"/>
	<path fill="#FFE435" d="M106.388,242.063h-5.32v2.107h0.863v7.531h-0.863v2.107h5.32c3.385,0,6.027-2.178,6.027-5.873
		C112.416,244.239,109.773,242.063,106.388,242.063z M106.042,251.391h-0.967v-6.91h0.967c1.9,0,3.109,1.383,3.109,3.455
		S107.943,251.391,106.042,251.391z"/>
	<path fill="#FFE435" d="M399.755,244.428c0.727,0,1.365,0.449,1.365,1.193c0,0.863-0.605,1.348-2.937,3.438l-3.196,2.867v1.883
		h9.449v-3.49h-2.297v1.123h-3.093l2.073-1.59c1.969-1.52,3.039-2.779,3.039-4.283c0-2.229-1.865-3.645-4.404-3.645
		c-2.711,0-4.266,1.348-4.818,3.662l2.66,0.76C397.908,245.172,398.495,244.428,399.755,244.428z"/>
	<path fill="#FFE435" d="M412.197,253.963c3.006,0,5.459-2.193,5.459-6.045s-2.453-5.994-5.459-5.994
		c-3.005,0-5.457,2.143-5.457,5.994S409.192,253.963,412.197,253.963z M412.197,244.428c1.348,0,2.16,1.244,2.16,3.508
		c0,2.262-0.812,3.523-2.16,3.523c-1.347,0-2.158-1.262-2.158-3.523C410.039,245.672,410.85,244.428,412.197,244.428z"/>
	<path fill="#FFE435" d="M425.468,253.963c3.006,0,5.459-2.193,5.459-6.045s-2.453-5.994-5.459-5.994s-5.459,2.143-5.459,5.994
		S422.462,253.963,425.468,253.963z M425.468,244.428c1.348,0,2.159,1.244,2.159,3.508c0,2.262-0.812,3.523-2.159,3.523
		s-2.159-1.262-2.159-3.523C423.309,245.672,424.121,244.428,425.468,244.428z"/>
	<path fill="#FFE435" d="M437.203,250.215h0.172l-2.711,3.594h3.333l3.282-4.389c0.725-0.967,1.227-2.004,1.227-3.246
		c0-2.539-2.039-4.285-4.803-4.285c-2.814,0-4.904,1.883-4.904,4.354C432.798,248.315,434.37,250.215,437.203,250.215z
		 M437.703,244.292c1.105,0,1.779,0.932,1.779,1.951c0,1.07-0.674,1.969-1.779,1.969c-1.14,0-1.779-0.932-1.779-1.969
		C435.923,245.223,436.581,244.292,437.703,244.292z"/>
	<polygon fill="#FFE435" points="96.853,418.209 96.33,417.686 96.33,414.606 97.007,413.93 99.408,413.93 100.117,414.637
		100.117,416.608 105.351,416.608 105.351,412.698 102.519,409.864 93.958,409.864 91.064,412.758 91.064,420.272 93.496,422.674
		99.625,422.674 100.148,423.198 100.148,426.338 99.47,427.016 96.914,427.016 96.236,426.338 96.236,424.368 90.97,424.368
		90.97,428.278 93.835,431.112 102.519,431.112 105.414,428.217 105.414,420.612 102.98,418.209 	"/>
	<polygon fill="#FFE435" points="118.281,422.428 124.408,422.428 124.408,418.086 118.281,418.086 118.281,414.206
		125.085,414.206 125.085,409.864 113.015,409.864 113.015,431.112 125.146,431.112 125.146,426.77 118.281,426.77 	"/>
	<polygon fill="#FFE435" points="135.398,409.864 132.441,412.821 132.441,428.155 135.398,431.112 143.835,431.112
		146.791,428.155 146.791,423.506 141.525,423.506 141.525,426.338 140.724,427.139 138.539,427.139 137.707,426.278
		137.707,414.823 138.539,413.991 140.724,413.991 141.525,414.792 141.525,417.44 146.791,417.44 146.791,412.821 143.835,409.864
			"/>
	<path fill="#FFE435" d="M169.019,419.934v-7.176l-2.895-2.895h-11.854v21.248h5.266v-8.129h2.094l2.4,8.129h5.359l-2.742-8.807
		L169.019,419.934z M163.753,418.395l-0.77,0.738h-3.447v-5.451h3.447l0.77,0.74V418.395z"/>
	<polygon fill="#FFE435" points="181.703,422.428 187.83,422.428 187.83,418.086 181.703,418.086 181.703,414.206 188.507,414.206
		188.507,409.864 176.437,409.864 176.437,431.112 188.57,431.112 188.57,426.77 181.703,426.77 	"/>
	<polygon fill="#FFE435" points="195.187,414.422 199.621,414.422 199.621,431.112 204.855,431.112 204.855,414.422
		209.289,414.422 209.289,409.864 195.187,409.864 	"/>
	<polygon fill="#FFE435" points="235.242,418.301 231.148,418.301 231.148,409.864 225.882,409.864 225.882,431.112
		231.148,431.112 231.148,423.29 235.242,423.29 235.242,431.112 240.478,431.112 240.478,409.864 235.242,409.864 	"/>
	<path fill="#FFE435" d="M251.375,409.864l-4.033,21.248h4.957l0.678-4.25h4.311l0.678,4.25h5.326l-4.064-21.248H251.375z
		 M253.623,422.766l1.539-9.699l1.51,9.699H253.623z"/>
	<polygon fill="#FFE435" points="280.068,421.442 274.957,409.864 270.123,409.864 270.123,431.112 274.773,431.112
		274.773,419.319 279.822,431.112 284.718,431.112 284.718,409.864 280.068,409.864 	"/>
	<path fill="#FFE435" d="M292.751,409.864v21.248h11.518l2.955-2.957v-15.334l-2.955-2.957H292.751z M301.958,426.153l-0.832,0.832
		h-3.109v-12.994h3.109l0.832,0.832V426.153z"/>
	<polygon fill="#FFE435" points="320.492,418.209 319.968,417.686 319.968,414.606 320.646,413.93 323.048,413.93 323.755,414.637
		323.755,416.608 328.992,416.608 328.992,412.698 326.158,409.864 317.597,409.864 314.703,412.758 314.703,420.272
		317.136,422.674 323.263,422.674 323.787,423.198 323.787,426.338 323.109,427.016 320.554,427.016 319.876,426.338
		319.876,424.368 314.611,424.368 314.611,428.278 317.474,431.112 326.158,431.112 329.052,428.217 329.052,420.612
		326.621,418.209 	"/>
	<polygon fill="#FFE435" points="346.015,418.301 341.919,418.301 341.919,409.864 336.654,409.864 336.654,431.112
		341.919,431.112 341.919,423.29 346.015,423.29 346.015,431.112 351.25,431.112 351.25,409.864 346.015,409.864 	"/>
	<path fill="#FFE435" d="M361.531,409.864l-4.033,21.248h4.957l0.678-4.25h4.311l0.678,4.25h5.328l-4.064-21.248H361.531z
		 M363.779,422.766l1.541-9.699l1.508,9.699H363.779z"/>
	<polygon fill="#FFE435" points="394.136,409.864 388.595,409.864 384.283,420.149 384.283,409.864 379.048,409.864
		379.048,431.112 384.283,431.112 384.283,427.231 386.224,423.106 388.656,431.112 394.291,431.112 389.98,418.579 	"/>
	<polygon fill="#FFE435" points="406.634,422.428 412.761,422.428 412.761,418.086 406.634,418.086 406.634,414.206
		413.439,414.206 413.439,409.864 401.369,409.864 401.369,431.112 413.501,431.112 413.501,426.77 406.634,426.77 	"/>
	<path fill="#FFE435" d="M495.494,347.721h-71.236c-7.827,0-14.195,6.367-14.195,14.193v32.67h-59.941l147.354-147.354
		L252.544,2.304L7.617,247.233l147.352,147.352H94.472v-32.67c0-7.826-6.367-14.193-14.193-14.193H9.042l23.975,25.908L8.972,399.54
		h49.924v32.67c0,7.826,6.367,14.193,14.193,14.193h133.698l45.757,45.755l45.758-45.755h77.15h54.966c0.271,0,0.636,0,1.028-0.043
		v0.043c7.826,0,14.193-6.367,14.193-14.193v-32.67h49.922l-24.044-25.91L495.494,347.721z M14.599,247.233L252.544,9.287
		l237.947,237.944L343.138,394.584h-14.965l147.441-147.441L252.271,23.797L28.927,247.143l147.441,147.441h-14.418L14.599,247.233z
		 M321.191,394.584h-137.84L35.91,247.143L252.271,30.78l216.361,216.363L321.191,394.584z M58.896,385.346v9.238H20.33
		l19.442-20.951l-19.394-20.957h59.9c5.094,0,9.238,4.145,9.238,9.238s-4.145,9.238-9.238,9.238h-7.189
		C65.263,371.153,58.896,377.52,58.896,385.346z M89.517,372.667v21.918H73.089c-5.095,0-9.238-4.145-9.238-9.238
		s4.144-9.238,9.238-9.238h7.189C83.807,376.108,87.032,374.805,89.517,372.667z M252.544,485.175l-38.774-38.772h14.417
		l24.084,24.083l24.084-24.083h14.965L252.544,485.175z M235.169,446.403h34.203l-17.102,17.101L235.169,446.403z M440.685,432.209
		c0,5.094-4.145,9.238-9.242,9.238c-0.65,0.002-354.777,0-358.354,0c-5.095,0-9.238-4.145-9.238-9.238v-36.111
		c2.484,2.139,5.709,3.441,9.238,3.441h358.357c3.527,0,6.752-1.303,9.238-3.441V432.209z M431.447,394.584h-16.43v-21.918
		c2.486,2.139,5.711,3.441,9.24,3.441h7.189c5.094,0,9.238,4.145,9.238,9.238S436.541,394.584,431.447,394.584z M484.205,394.584
		H445.64v-9.238c0-7.826-6.367-14.193-14.193-14.193h-7.189c-5.096,0-9.24-4.145-9.24-9.238s4.145-9.238,9.24-9.238h59.9
		l-19.395,20.957L484.205,394.584z"/>
</g>
</svg>
